<svg xmlns="http://www.w3.org/2000/svg" viewBox="0 0 512 512"><defs><linearGradient id="bg" x1="70" y1="30" x2="440" y2="480" gradientUnits="userSpaceOnUse"><stop stop-color="#12B981"/><stop offset="1" stop-color="#047857"/></linearGradient><filter id="shadow" x="-30%" y="-30%" width="160%" height="160%"><feDropShadow dx="0" dy="18" stdDeviation="18" flood-color="#022c22" flood-opacity=".22"/></filter></defs><rect width="512" height="512" rx="118" fill="url(#bg)"/><circle cx="150" cy="105" r="78" fill="#fff" opacity=".08"/><g filter="url(#shadow)"><path d="M120 154c0-29 23-52 52-52h168c29 0 52 23 52 52v128c0 29-23 52-52 52H228l-67 56c-9 8-23 1-23-11v-45h-14c-29 0-52-23-52-52V154z" fill="#fff"/><path d="M181 178c0-12 10-22 22-22h106c12 0 22 10 22 22s-10 22-22 22H203c-12 0-22-10-22-22zm0 68c0-12 10-22 22-22h66c12 0 22 10 22 22s-10 22-22 22h-66c-12 0-22-10-22-22z" fill="#078b59"/></g></svg>